<?xml version="1.0" standalone="no"?>
<!DOCTYPE svg PUBLIC "-//W3C//DTD SVG 20010904//EN"
 "http://www.w3.org/TR/2001/REC-SVG-20010904/DTD/svg10.dtd">
<svg version="1.0" xmlns="http://www.w3.org/2000/svg"
 width="1280.000000pt" height="975.000000pt" viewBox="0 0 1280.000000 975.000000"
 preserveAspectRatio="xMidYMid meet">
<g transform="translate(0.000000,975.000000) scale(0.100000,-0.100000)"
fill="#000000" stroke="none">
<path d="M7925 9739 c-49 -4 -153 -13 -230 -19 -527 -42 -1003 -172 -1587
-433 -486 -218 -635 -314 -1207 -780 -358 -291 -561 -350 -1011 -293 -612 77
-1011 70 -1365 -24 -610 -162 -940 -606 -1090 -1463 -56 -324 -60 -383 -57
-894 l3 -483 -89 -117 c-241 -322 -441 -649 -632 -1038 -333 -678 -525 -1320
-610 -2045 -12 -102 -26 -216 -31 -255 -22 -166 -22 -256 0 -383 23 -137 59
-239 73 -206 4 10 60 209 123 442 184 675 292 1017 441 1397 302 766 646 1336
1117 1850 l65 70 273 1 c292 1 407 11 642 59 463 94 865 270 1237 543 55 40
105 70 110 67 6 -4 28 -42 50 -86 184 -365 565 -841 949 -1183 732 -653 1608
-1084 2694 -1326 56 -13 101 -28 104 -35 4 -12 -220 -1443 -233 -1487 -3 -10
-8 -18 -12 -18 -4 0 -78 -11 -165 -25 -577 -90 -909 -285 -1024 -602 -23 -64
-53 -266 -41 -278 3 -3 48 36 99 88 100 100 172 147 307 200 83 31 323 97 359
97 l22 0 -6 -213 c-3 -117 -3 -230 1 -251 l7 -38 49 73 c117 178 262 310 423
384 115 53 183 66 382 74 119 5 188 12 205 21 57 30 53 62 -15 130 -36 36 -57
65 -61 87 -8 44 12 274 42 461 68 434 203 798 376 1012 l49 60 93 0 c399 0
729 -204 861 -534 108 -267 131 -818 44 -1053 -74 -200 -172 -256 -684 -393
-531 -142 -689 -209 -845 -356 -64 -61 -138 -159 -128 -169 2 -3 58 6 124 20
163 33 299 52 499 69 269 23 392 28 400 17 3 -6 -10 -70 -29 -143 -35 -130
-70 -308 -62 -315 2 -2 75 37 162 87 274 158 493 255 676 301 66 17 130 22
313 28 238 7 264 12 285 52 10 17 0 31 -78 112 -146 151 -167 211 -166 487 0
152 5 204 23 290 83 393 297 753 670 1129 163 165 243 231 579 485 372 280
504 393 657 564 413 460 608 995 699 1917 54 543 54 793 0 1205 -94 724 -378
1284 -912 1802 -242 234 -534 429 -922 617 -668 322 -1524 562 -2220 621 -69
6 -172 15 -230 20 -122 12 -415 11 -545 -1z"/>
</g>
</svg>
