<svg width="102.55" height="122.88" xmlns="http://www.w3.org/2000/svg" xml:space="preserve" version="1.1">

 <g>
  <title>Layer 1</title>
  <g id="svg_1">
   <path id="svg_2" clip-rule="evenodd" fill-rule="evenodd" d="m102.55,122.88l-102.55,0l0,-122.88l77.66,0l24.89,26.43l0,96.45l0,0zm-5.94,-6.43l0,-86.49l-22.68,0l0,-24.53l-67.9,0l0,111.03l90.58,0l0,-0.01zm-34.56,-84.58l-46.42,0l0,-6.03l46.42,0l0,6.03l0,0zm25.28,18.12l-71.7,0l0,-6.06l71.7,0l0,6.06l0,0zm-40.03,18.06l-31.67,0l0,-6.03l31.67,0l0,6.03l0,0zm41.65,17.99l-73.32,0l0,-6.03l73.33,0l0,6.03l-0.01,0zm0,18.09l-73.32,0l0,-6.06l73.33,0l0,6.06l-0.01,0z" class="st0"/>
  </g>
  <line stroke="#000" stroke-width="10" stroke-linecap="undefined" stroke-linejoin="undefined" id="svg_3" y2="118.10499" x2="13.93991" y1="14.105" x1="91.93991" fill="none"/>
 </g>
</svg>